<mxfile host="app.diagrams.net" agent="Mozilla/5.0 (Windows NT 10.0; Win64; x64) AppleWebKit/537.36 (KHTML, like Gecko) Chrome/134.0.0.0 Safari/537.36" version="26.2.4">
  <diagram name="Strona-1" id="7ypacIHAn1qZDOIRr3P8">
    <mxGraphModel dx="1590" dy="674" grid="0" gridSize="10" guides="1" tooltips="1" connect="1" arrows="1" fold="1" page="0" pageScale="1" pageWidth="827" pageHeight="1169" math="0" shadow="0">
      <root>
        <mxCell id="0" />
        <mxCell id="1" parent="0" />
        <mxCell id="AKv_Zq8WXgRSlemVmK83-8" style="rounded=0;orthogonalLoop=1;jettySize=auto;html=1;exitX=0;exitY=0.5;exitDx=0;exitDy=0;entryX=1;entryY=0.5;entryDx=0;entryDy=0;" edge="1" parent="1" source="2" target="AKv_Zq8WXgRSlemVmK83-7">
          <mxGeometry relative="1" as="geometry" />
        </mxCell>
        <mxCell id="2" value="Klient" style="whiteSpace=wrap;strokeWidth=2;" parent="1" vertex="1">
          <mxGeometry x="409" y="213" width="96" height="49" as="geometry" />
        </mxCell>
        <mxCell id="AKv_Zq8WXgRSlemVmK83-10" style="edgeStyle=orthogonalEdgeStyle;rounded=0;orthogonalLoop=1;jettySize=auto;html=1;entryX=0.5;entryY=0;entryDx=0;entryDy=0;" edge="1" parent="1" source="3" target="AKv_Zq8WXgRSlemVmK83-7">
          <mxGeometry relative="1" as="geometry" />
        </mxCell>
        <mxCell id="3" value="Sprzedawca" style="whiteSpace=wrap;strokeWidth=2;" parent="1" vertex="1">
          <mxGeometry x="70" y="28" width="92" height="49" as="geometry" />
        </mxCell>
        <mxCell id="AKv_Zq8WXgRSlemVmK83-4" value="Produkt" style="whiteSpace=wrap;strokeWidth=2;" vertex="1" parent="1">
          <mxGeometry x="68.5" y="365" width="96" height="49" as="geometry" />
        </mxCell>
        <mxCell id="AKv_Zq8WXgRSlemVmK83-16" style="edgeStyle=orthogonalEdgeStyle;rounded=0;orthogonalLoop=1;jettySize=auto;html=1;exitX=1;exitY=0.5;exitDx=0;exitDy=0;entryX=0;entryY=0.5;entryDx=0;entryDy=0;" edge="1" parent="1" source="AKv_Zq8WXgRSlemVmK83-5" target="AKv_Zq8WXgRSlemVmK83-7">
          <mxGeometry relative="1" as="geometry" />
        </mxCell>
        <mxCell id="AKv_Zq8WXgRSlemVmK83-5" value="Płatność" style="whiteSpace=wrap;strokeWidth=2;" vertex="1" parent="1">
          <mxGeometry x="-226" y="213" width="96" height="49" as="geometry" />
        </mxCell>
        <mxCell id="AKv_Zq8WXgRSlemVmK83-29" style="edgeStyle=orthogonalEdgeStyle;rounded=0;orthogonalLoop=1;jettySize=auto;html=1;endArrow=none;startFill=0;" edge="1" parent="1" source="AKv_Zq8WXgRSlemVmK83-6" target="AKv_Zq8WXgRSlemVmK83-4">
          <mxGeometry relative="1" as="geometry" />
        </mxCell>
        <mxCell id="AKv_Zq8WXgRSlemVmK83-6" value="Baza Danych" style="whiteSpace=wrap;strokeWidth=2;" vertex="1" parent="1">
          <mxGeometry x="148" y="562" width="96" height="49" as="geometry" />
        </mxCell>
        <mxCell id="AKv_Zq8WXgRSlemVmK83-9" style="edgeStyle=orthogonalEdgeStyle;rounded=0;orthogonalLoop=1;jettySize=auto;html=1;entryX=0.5;entryY=0;entryDx=0;entryDy=0;" edge="1" parent="1" source="AKv_Zq8WXgRSlemVmK83-7" target="AKv_Zq8WXgRSlemVmK83-4">
          <mxGeometry relative="1" as="geometry" />
        </mxCell>
        <mxCell id="AKv_Zq8WXgRSlemVmK83-7" value="Zakup" style="whiteSpace=wrap;strokeWidth=2;" vertex="1" parent="1">
          <mxGeometry x="68" y="213" width="96" height="49" as="geometry" />
        </mxCell>
        <mxCell id="AKv_Zq8WXgRSlemVmK83-30" style="edgeStyle=orthogonalEdgeStyle;rounded=0;orthogonalLoop=1;jettySize=auto;html=1;entryX=0.5;entryY=1;entryDx=0;entryDy=0;endArrow=none;startFill=0;" edge="1" parent="1" source="AKv_Zq8WXgRSlemVmK83-11" target="AKv_Zq8WXgRSlemVmK83-4">
          <mxGeometry relative="1" as="geometry" />
        </mxCell>
        <mxCell id="AKv_Zq8WXgRSlemVmK83-11" value="Magazyn" style="whiteSpace=wrap;strokeWidth=2;" vertex="1" parent="1">
          <mxGeometry x="-22" y="562" width="96" height="49" as="geometry" />
        </mxCell>
        <mxCell id="AKv_Zq8WXgRSlemVmK83-17" value="1" style="text;html=1;align=center;verticalAlign=middle;resizable=0;points=[];autosize=1;strokeColor=none;fillColor=none;" vertex="1" parent="1">
          <mxGeometry x="380" y="211" width="25" height="26" as="geometry" />
        </mxCell>
        <mxCell id="AKv_Zq8WXgRSlemVmK83-18" value="1...*" style="text;html=1;align=center;verticalAlign=middle;resizable=0;points=[];autosize=1;strokeColor=none;fillColor=none;" vertex="1" parent="1">
          <mxGeometry x="169" y="211" width="39" height="26" as="geometry" />
        </mxCell>
        <mxCell id="AKv_Zq8WXgRSlemVmK83-19" value="1" style="text;html=1;align=center;verticalAlign=middle;resizable=0;points=[];autosize=1;strokeColor=none;fillColor=none;" vertex="1" parent="1">
          <mxGeometry x="117" y="79" width="25" height="26" as="geometry" />
        </mxCell>
        <mxCell id="AKv_Zq8WXgRSlemVmK83-21" value="1...*" style="text;html=1;align=center;verticalAlign=middle;resizable=0;points=[];autosize=1;strokeColor=none;fillColor=none;" vertex="1" parent="1">
          <mxGeometry x="115" y="187" width="39" height="26" as="geometry" />
        </mxCell>
        <mxCell id="AKv_Zq8WXgRSlemVmK83-22" value="1" style="text;html=1;align=center;verticalAlign=middle;resizable=0;points=[];autosize=1;strokeColor=none;fillColor=none;" vertex="1" parent="1">
          <mxGeometry x="-131" y="207" width="25" height="26" as="geometry" />
        </mxCell>
        <mxCell id="AKv_Zq8WXgRSlemVmK83-23" value="1" style="text;html=1;align=center;verticalAlign=middle;resizable=0;points=[];autosize=1;strokeColor=none;fillColor=none;" vertex="1" parent="1">
          <mxGeometry x="41" y="209" width="25" height="26" as="geometry" />
        </mxCell>
        <mxCell id="AKv_Zq8WXgRSlemVmK83-24" value="1" style="text;html=1;align=center;verticalAlign=middle;resizable=0;points=[];autosize=1;strokeColor=none;fillColor=none;" vertex="1" parent="1">
          <mxGeometry x="115" y="265" width="25" height="26" as="geometry" />
        </mxCell>
        <mxCell id="AKv_Zq8WXgRSlemVmK83-25" value="1...*" style="text;html=1;align=center;verticalAlign=middle;resizable=0;points=[];autosize=1;strokeColor=none;fillColor=none;" vertex="1" parent="1">
          <mxGeometry x="114" y="336" width="39" height="26" as="geometry" />
        </mxCell>
        <mxCell id="AKv_Zq8WXgRSlemVmK83-26" value="1" style="text;html=1;align=center;verticalAlign=middle;resizable=0;points=[];autosize=1;strokeColor=none;fillColor=none;" vertex="1" parent="1">
          <mxGeometry x="115" y="414" width="25" height="26" as="geometry" />
        </mxCell>
        <mxCell id="AKv_Zq8WXgRSlemVmK83-27" value="1" style="text;html=1;align=center;verticalAlign=middle;resizable=0;points=[];autosize=1;strokeColor=none;fillColor=none;" vertex="1" parent="1">
          <mxGeometry x="192" y="536" width="25" height="26" as="geometry" />
        </mxCell>
        <mxCell id="AKv_Zq8WXgRSlemVmK83-28" value="1" style="text;html=1;align=center;verticalAlign=middle;resizable=0;points=[];autosize=1;strokeColor=none;fillColor=none;" vertex="1" parent="1">
          <mxGeometry x="2" y="536" width="25" height="26" as="geometry" />
        </mxCell>
        <mxCell id="AKv_Zq8WXgRSlemVmK83-31" value="Obsługuje" style="text;html=1;align=center;verticalAlign=middle;resizable=0;points=[];autosize=1;strokeColor=none;fillColor=none;" vertex="1" parent="1">
          <mxGeometry x="120" y="135" width="72" height="26" as="geometry" />
        </mxCell>
        <mxCell id="AKv_Zq8WXgRSlemVmK83-32" value="" style="triangle;whiteSpace=wrap;html=1;fillColor=light-dark(#FFFFFF,#FFFFFF);fillStyle=solid;rotation=-180;" vertex="1" parent="1">
          <mxGeometry x="250" y="211" width="10.5" height="19" as="geometry" />
        </mxCell>
        <mxCell id="AKv_Zq8WXgRSlemVmK83-33" value="" style="triangle;whiteSpace=wrap;html=1;fillColor=light-dark(#FFFFFF,#FFFFFF);fillStyle=solid;rotation=91;" vertex="1" parent="1">
          <mxGeometry x="128.25" y="161" width="10.5" height="19" as="geometry" />
        </mxCell>
        <mxCell id="AKv_Zq8WXgRSlemVmK83-35" value="Kupuje" style="text;html=1;align=center;verticalAlign=middle;resizable=0;points=[];autosize=1;strokeColor=none;fillColor=none;" vertex="1" parent="1">
          <mxGeometry x="265" y="207" width="55" height="26" as="geometry" />
        </mxCell>
        <mxCell id="AKv_Zq8WXgRSlemVmK83-36" value="" style="triangle;whiteSpace=wrap;html=1;fillColor=light-dark(#FFFFFF,#FFFFFF);fillStyle=solid;rotation=90;" vertex="1" parent="1">
          <mxGeometry x="137.5" y="315" width="10.5" height="19" as="geometry" />
        </mxCell>
        <mxCell id="AKv_Zq8WXgRSlemVmK83-37" value="Zawiera" style="text;html=1;align=center;verticalAlign=middle;resizable=0;points=[];autosize=1;strokeColor=none;fillColor=none;" vertex="1" parent="1">
          <mxGeometry x="117" y="289" width="61" height="26" as="geometry" />
        </mxCell>
        <mxCell id="AKv_Zq8WXgRSlemVmK83-38" value="" style="triangle;whiteSpace=wrap;html=1;fillColor=light-dark(#FFFFFF,#FFFFFF);fillStyle=solid;" vertex="1" parent="1">
          <mxGeometry x="14" y="211" width="10.5" height="19" as="geometry" />
        </mxCell>
        <mxCell id="AKv_Zq8WXgRSlemVmK83-39" value="Przypisane" style="text;html=1;align=center;verticalAlign=middle;resizable=0;points=[];autosize=1;strokeColor=none;fillColor=none;" vertex="1" parent="1">
          <mxGeometry x="-63" y="207" width="77" height="26" as="geometry" />
        </mxCell>
        <mxCell id="AKv_Zq8WXgRSlemVmK83-40" value="" style="triangle;whiteSpace=wrap;html=1;fillColor=light-dark(#FFFFFF,#FFFFFF);fillStyle=solid;rotation=90;" vertex="1" parent="1">
          <mxGeometry x="9.25" y="507" width="10.5" height="19" as="geometry" />
        </mxCell>
        <mxCell id="AKv_Zq8WXgRSlemVmK83-41" value="Przechowywany" style="text;html=1;align=center;verticalAlign=middle;resizable=0;points=[];autosize=1;strokeColor=none;fillColor=none;" vertex="1" parent="1">
          <mxGeometry x="-73" y="488" width="105" height="26" as="geometry" />
        </mxCell>
        <mxCell id="AKv_Zq8WXgRSlemVmK83-42" value="" style="triangle;whiteSpace=wrap;html=1;fillColor=light-dark(#FFFFFF,#FFFFFF);fillStyle=solid;rotation=-90;" vertex="1" parent="1">
          <mxGeometry x="206.5" y="488" width="10.5" height="19" as="geometry" />
        </mxCell>
        <mxCell id="AKv_Zq8WXgRSlemVmK83-43" value="Odnotowuje" style="text;html=1;align=center;verticalAlign=middle;resizable=0;points=[];autosize=1;strokeColor=none;fillColor=none;" vertex="1" parent="1">
          <mxGeometry x="201" y="507" width="82" height="26" as="geometry" />
        </mxCell>
      </root>
    </mxGraphModel>
  </diagram>
</mxfile>
